<?xml version="1.0" encoding="UTF-8" standalone="no"?>
<!DOCTYPE svg PUBLIC "-//W3C//DTD SVG 1.1//EN"
 "http://www.w3.org/Graphics/SVG/1.1/DTD/svg11.dtd">
<!-- Generated by graphviz version 2.38.0 (20140413.2041)
 -->
<!-- Title: %3 Pages: 1 -->
<svg width="603pt" height="260pt"
 viewBox="0.00 0.00 603.19 260.00" xmlns="http://www.w3.org/2000/svg" xmlns:xlink="http://www.w3.org/1999/xlink">
<g id="graph0" class="graph" transform="scale(1 1) rotate(0) translate(4 256)">
<title>%3</title>
<polygon fill="white" stroke="none" points="-4,4 -4,-256 599.187,-256 599.187,4 -4,4"/>
<!-- 0 -->
<g id="0" class="node"><title>0</title>
<ellipse fill="none" stroke="black" cx="240.093" cy="-234" rx="34.394" ry="18"/>
<text text-anchor="middle" x="240.093" y="-230.3" font-family="Times,serif" font-size="14.00">tabbed</text>
</g>
<!-- 1 -->
<g id="1" class="node"><title>1</title>
<ellipse fill="none" stroke="black" cx="74.0934" cy="-162" rx="74.187" ry="18"/>
<text text-anchor="middle" x="74.0934" y="-158.3" font-family="Times,serif" font-size="14.00">fish &#160;/home/cbenz</text>
</g>
<!-- 0&#45;&gt;1 -->
<g id="edge1" class="edge"><title>0&#45;&gt;1</title>
<path fill="none" stroke="black" d="M214.156,-222.062C188.731,-211.341 149.46,-194.781 118.964,-181.921"/>
<polygon fill="black" stroke="black" points="119.974,-178.549 109.399,-177.888 117.254,-184.999 119.974,-178.549"/>
</g>
<!-- 2 -->
<g id="2" class="node"><title>2</title>
<ellipse fill="none" stroke="black" cx="240.093" cy="-162" rx="74.187" ry="18"/>
<text text-anchor="middle" x="240.093" y="-158.3" font-family="Times,serif" font-size="14.00">fish &#160;/home/cbenz</text>
</g>
<!-- 0&#45;&gt;2 -->
<g id="edge2" class="edge"><title>0&#45;&gt;2</title>
<path fill="none" stroke="black" d="M240.093,-215.697C240.093,-207.983 240.093,-198.712 240.093,-190.112"/>
<polygon fill="black" stroke="black" points="243.594,-190.104 240.093,-180.104 236.594,-190.104 243.594,-190.104"/>
</g>
<!-- 3 -->
<g id="3" class="node"><title>3</title>
<ellipse fill="none" stroke="black" cx="363.093" cy="-162" rx="30.5947" ry="18"/>
<text text-anchor="middle" x="363.093" y="-158.3" font-family="Times,serif" font-size="14.00">splitv</text>
</g>
<!-- 0&#45;&gt;3 -->
<g id="edge3" class="edge"><title>0&#45;&gt;3</title>
<path fill="none" stroke="black" d="M262.654,-220.161C282.437,-208.902 311.352,-192.446 333.084,-180.079"/>
<polygon fill="black" stroke="black" points="334.95,-183.044 341.91,-175.056 331.487,-176.96 334.95,-183.044"/>
</g>
<!-- 4 -->
<g id="4" class="node"><title>4</title>
<ellipse fill="none" stroke="black" cx="287.093" cy="-90" rx="102.882" ry="18"/>
<text text-anchor="middle" x="287.093" y="-86.3" font-family="Times,serif" font-size="14.00">i3&#45;save&#45;tree &#160;/home/cbenz</text>
</g>
<!-- 3&#45;&gt;4 -->
<g id="edge4" class="edge"><title>3&#45;&gt;4</title>
<path fill="none" stroke="black" d="M347.346,-146.496C337.455,-137.386 324.458,-125.414 313.068,-114.924"/>
<polygon fill="black" stroke="black" points="315.224,-112.151 305.497,-107.951 310.481,-117.3 315.224,-112.151"/>
</g>
<!-- 5 -->
<g id="5" class="node"><title>5</title>
<ellipse fill="none" stroke="black" cx="438.093" cy="-90" rx="30.5947" ry="18"/>
<text text-anchor="middle" x="438.093" y="-86.3" font-family="Times,serif" font-size="14.00">splith</text>
</g>
<!-- 3&#45;&gt;5 -->
<g id="edge5" class="edge"><title>3&#45;&gt;5</title>
<path fill="none" stroke="black" d="M378.633,-146.496C389.122,-136.707 403.149,-123.614 414.945,-112.605"/>
<polygon fill="black" stroke="black" points="417.393,-115.108 422.315,-105.726 412.617,-109.991 417.393,-115.108"/>
</g>
<!-- 6 -->
<g id="6" class="node"><title>6</title>
<ellipse fill="none" stroke="black" cx="355.093" cy="-18" rx="74.187" ry="18"/>
<text text-anchor="middle" x="355.093" y="-14.3" font-family="Times,serif" font-size="14.00">fish &#160;/home/cbenz</text>
</g>
<!-- 5&#45;&gt;6 -->
<g id="edge6" class="edge"><title>5&#45;&gt;6</title>
<path fill="none" stroke="black" d="M421.297,-74.8345C410.157,-65.4388 395.282,-52.8937 382.454,-42.0751"/>
<polygon fill="black" stroke="black" points="384.684,-39.3772 374.783,-35.6057 380.171,-44.7282 384.684,-39.3772"/>
</g>
<!-- 7 -->
<g id="7" class="node"><title>7</title>
<ellipse fill="none" stroke="black" cx="521.093" cy="-18" rx="74.187" ry="18"/>
<text text-anchor="middle" x="521.093" y="-14.3" font-family="Times,serif" font-size="14.00">fish &#160;/home/cbenz</text>
</g>
<!-- 5&#45;&gt;7 -->
<g id="edge7" class="edge"><title>5&#45;&gt;7</title>
<path fill="none" stroke="black" d="M454.89,-74.8345C466.03,-65.4388 480.905,-52.8937 493.733,-42.0751"/>
<polygon fill="black" stroke="black" points="496.016,-44.7282 501.404,-35.6057 491.503,-39.3772 496.016,-44.7282"/>
</g>
</g>
</svg>
